<svg xmlns="http://www.w3.org/2000/svg" version="1.1" viewBox="-5.0 -10.0 110.0 135.0">
 <path d="m43.895 45.742c-0.51953 0.41406 0.11328 1.1875 0.625 0.78125 0.87109-0.69531 1.5391-1.6875 1.9844-2.9453 0.375-1.0586 1.5-4.7266 0.19531-7.5-0.99609-2.1094-3.3477-3.5195-5.7578-3.4961-2.6367-1.1094-5.5664 0.98438-7.7109 1.9375-0.60156 0.26953-0.19922 1.1836 0.40625 0.91406 2.1328-0.94922 4.8477-2.8828 6.9961-1.8906 0.011719 0.003906 0.023438 0.007812 0.035157 0.011719 2.4219 1.1562 3.0078 6.6602-0.26172 9.8047-0.47656 0.45703 0.21484 1.1797 0.69141 0.72266 3.1484-3.0234 3.1602-7.9336 1.3828-10.285 1.4336 0.41406 2.6953 1.3984 3.3125 2.7109 1.168 2.4766 0.25391 7.5156-1.8984 9.2344z"/>
 <path d="m15.801 54.664c-0.48047 1.9414-0.35547 3.6406 0.27734 3.7969s1.5312-1.2891 2.0117-3.2305c0.48047-1.9414 0.35547-3.6406-0.27734-3.7969s-1.5312 1.293-2.0117 3.2305z"/>
 <path d="m10.734 53.703c-0.48047 1.9336-0.35547 3.6367 0.27734 3.793 0.63281 0.15625 1.5312-1.3008 2.0117-3.2344 0.48047-1.9336 0.35547-3.6367-0.27734-3.793-0.63281-0.15625-1.5312 1.2812-2.0117 3.2344z"/>
 <path d="m92.902 59.988c-1.6094-0.86328-2.6484-1.7695-3.3008-2.9375 2.1133-1.0312 2.3086-3.6797 1.1602-4.6172-0.85547-0.69531-2.1992-0.19531-2.6797 0.78516-0.47656 0.97266-0.21875 2.1641 0.14453 3.1992-1.0117 0.11719-2.1992-0.25781-3.2656-1.3555 0.23437-7.9336-2.2812-14.789-10.109-21.707-0.49609-0.4375-1.1562 0.3125-0.66406 0.75 9.6641 8.543 11 18.086 7.9648 30.5-0.88672 3.6602-2.5 7.3789-4.6992 10.93-0.22266 0.10156-0.15625 0.10547-0.83203 1.3047-1.2617 1.8828-1.3906 1.793-1.3008 2.1562-3.2188 5.0039-3.0039 5.5117-4.7891 7.5664-2.2891 2.6367-5.0742 3.5781-7.3125 0.84766-0.99609-1.2148-1.3477-2.8555-1.4141-4.5898 0.12109-0.023437 0.24609-0.039062 0.36719-0.0625 0.64844-0.125 0.46094-1.1055-0.19141-0.98047-0.0625 0.011718-0.125 0.019531-0.1875 0.03125 0.039062-1.8594 0.32812-3.7422 0.47266-5.2617 0.058594-0.65625-0.92969-0.75781-0.99609-0.09375-0.15234 1.6133-0.45312 3.5469-0.47656 5.5312-4.9922 0.83594-13.445 1.2773-17.816-1.8086 0.62891-0.92969 1.1172-1.7656 1.4062-2.3516 0.29297-0.59375-0.60156-1.0352-0.89844-0.44141-1.4609 2.9648-5.875 8.8359-9.4453 8.9805-1.3203 0.050781-2.418-0.67578-3.3477-2.2305-1.7891-2.9961-0.15625-7.5703 0.67188-10.887 0.15625-0.64062-0.80859-0.88672-0.97266-0.24219-0.16797 0.67969-0.35156 1.3203-0.63672 2.4102-6.0703-1.9062-11.504-5.5117-13.863-11.477 2.5117 0.066406 4.8203-0.79297 6.3594-2.668 0.41797-0.50781-0.35156-1.1445-0.77344-0.63281-3.4453 4.1992-11.547 2.332-13.195-2.6875-1.0078-3.0742-0.25781-6.9648 1.7852-9.2461 2.1055-2.332 5.2617-2.332 5.1289-2.3125 1.3203-0.15234 3.6055 0.19141 5.082 1.0742 2.2383 1.3164 3.3828 4.2969 2.7227 7.0859-0.15234 0.64453 0.82031 0.875 0.97266 0.23047 0.75781-3.207-0.58203-6.6445-3.1875-8.1758-1.4531-0.87109-3.25-1.2148-4.9336-1.2305 1.4297-5.375 4.1406-10.656 8.0039-14.566 1.9336-1.9492 4.3789-3.3555 6.7188-4.6289 2.4844-1.3477 5.6289-2.207 9.3477-2.5508 0.27344-0.027344 0.47656-0.26953 0.45312-0.54297-0.027344-0.27734-0.27344-0.48047-0.54297-0.45313-5.6016 0.51953-8.4531 1.8242-12.172 4.0703-0.13281-0.074219-1.4297-1.418-4.4961-1.5703-1.5039-0.074218-2.3594 0.11328-3.3359 0.32422-0.76953 0.16797-1.3789 0.53125-1.9141 1-0.11719 0.066407-0.24609 0.10547-0.35156 0.18359-1.9766 1.457-3.4336 6.0195-0.32031 12.035-1.0391 2.2109-1.8594 4.4844-2.4414 6.7695-2.2266 0.21484-4.1211 1.0898-5.4766 2.5898-2.3047 2.5742-3.125 6.7812-1.9922 10.227 0.95703 2.9141 3.9336 5.1211 7.4531 5.5859 0.51172 1.4141 1.2266 2.8398 2.2539 4.2422-0.83594 3.1367-1.8906 7.0625-0.23828 9.8477 2.9844 4.9805 7.5273 1.5352 10.637-2.2539 0.70312 0.27734 1.2578 0.45703 2.0742 0.71094-0.67578 2.7969-1.1055 5.8711 0.32031 8.2539 3.3438 5.5977 8.7227 1.6562 12.562-3.6367 0.75781 0.53516 1.6211 0.98438 2.5742 1.3359 0.1875 2.6094 0.70312 5.2852 2.4805 6.9219 4.2383 3.8672 7.6602-0.48438 9.7969-5.8359 0.78125-0.066406 1.418-0.078125 3.5664-0.42969 0.29688 6.6172 5.7148 9.7109 10.477 4.2266 1.8438-2.125 2.1914-3.5117 4.7695-7.5156 5.0352-6.4727 8.2188-13.785 8.8398-23.355 1.0898 0.84766 2.3906 1.2812 3.7344 1.0234 0.73438 1.4219 1.918 2.4922 3.7969 3.5 0.58594 0.30078 1.0586-0.58203 0.47266-0.89453zm-66.156-32.73c-0.60547 0.39063-1.1992 0.80859-1.7734 1.25-0.92578-0.80859-1.9688-1.7031-3.2227-2.2031-0.14062-0.054688-0.28125-0.074219-0.42188-0.11719 1.832-0.22266 3.918-0.007812 5.418 1.0703zm-9.5469 1.4414c0.058593-0.03125 0.11328-0.070313 0.15625-0.12891 0.40234-0.52344 0.79297-1 1.2305-1.3828 0.90234-0.41797 1.9961-0.26953 2.793 0.046875 1.0508 0.42188 1.9531 1.1719 2.8203 1.9297-2.6484 2.2695-4.7852 5.3398-6.3828 8.3945-1.3125-2.8008-2.0078-6.0938-0.61719-8.8594zm72.473 24.43c1.0391-0.22656 1.25 2.1406-0.47656 3.0117-0.41406-1.1289-0.70312-2.75 0.47656-3.0117z"/>
 <path d="m65.242 35.312c5.4336-1.6289 9.7539-6.9219 9.4102-13.27-0.39062-7.1914-6.6484-12.719-14.066-12.441-3.5586-0.25781-7 0.72266-9.7812 2.7422-0.53516 0.38672 0.046874 1.1992 0.58594 0.80859 8.3477-6.0625 20.594-0.91797 21.125 9.0039 0.30078 5.4609-3.2578 10.309-8.4609 12.211-4.8359-1.7617-9.9961-3.3555-15.77-4.8672-2.1758-3.2812-2.6484-7.3828-1.0547-11.191 0.25391-0.60938-0.66797-0.99609-0.92188-0.38672-1.5938 3.8125-1.3906 8.1914 1.0625 11.988-0.86719-0.21875-1.7305-0.44141-2.6133-0.64844-0.39453-0.09375-0.66797-0.44141-0.66797-0.84375 0-0.66016-1-0.66016-1 0 0 0.86719 0.58984 1.6133 1.4375 1.8164 8.2812 1.9375 17.645 4.8203 25.422 8.293 0.76562 0.34375 1.668 0.13281 2.1797-0.51562l0.21875-0.26172c0.69141-0.83203 0.52344-2.0859-0.33984-2.6953-0.41797-0.30078-0.83984-0.58984-1.2656-0.87109-0.55469-0.36328-1.1016 0.47266-0.55078 0.83594 0.41406 0.27344 0.82422 0.55469 1.2344 0.85156 0.40625 0.28516 0.46094 0.87109 0.15234 1.2422l-0.22656 0.27344c-0.23047 0.29297-0.64453 0.39062-0.99609 0.23047-1.8477-0.82422-3.8125-1.6172-5.8203-2.375 0.078125-0.027344 0.15234-0.0625 0.22656-0.09375 0.16406 0.054687 0.32031 0.10156 0.48047 0.16406z"/>
 <path d="m56.344 26.293c-0.046875-0.65625-1.0469-0.58984-0.99609 0.074219 0.14062 1.9375 1.8516 3.2344 3.7812 3.3594l-0.019531 2.5547c0 0.27734 0.21875 0.5 0.49609 0.50391h0.003906c0.27344 0 0.5-0.22266 0.5-0.49609l0.019531-2.6172c3.2305-0.57812 4.0078-4.2891 1.7148-5.9531-1.6328-1.1836-4.8125-0.57812-5.375-2.4375-0.60938-2.0352 3.168-5.1797 5.25-2.3711 0.39453 0.53516 1.1953-0.066406 0.80469-0.59375-0.6875-0.92969-1.6523-1.4531-2.7227-1.5l0.019531-2.5547c0-0.27734-0.21875-0.5-0.49609-0.50391h-0.003907c-0.27344 0-0.5 0.22266-0.5 0.49609l-0.019531 2.6562c-2.3398 0.56641-3.7891 2.9883-3.2891 4.6602 0.80469 2.668 4.2773 1.8945 5.7461 2.957 0.72656 0.52734 1.0742 1.5312 0.82813 2.3828-0.82813 2.8359-5.5391 2.1719-5.7422-0.61719z"/>
 <path d="m77.723 20.066c-0.62891-0.16797-0.89062 0.80859-0.24219 0.96875 4.8008 1.1836 4.8242 1.2148 4.9609 1.2148 0.58594 0 0.6875-0.84375 0.12109-0.98438z"/>
 <path d="m83.652 14.98c-2.2109 0.46484-4.4062 1.0859-6.5273 1.8438-0.625 0.22266-0.28125 1.168 0.33594 0.94141 2.0781-0.74219 4.2305-1.3516 6.3984-1.8047 0.64844-0.13672 0.4375-1.1133-0.20703-0.98047z"/>
 <path d="m80.398 10.102c0.44141-0.49219-0.30469-1.1562-0.74609-0.66797-1.3086 1.4609-2.5703 2.8945-4.1445 4.6523-0.44141 0.49219 0.30469 1.1602 0.74609 0.66797 1.3789-1.543 2.8633-3.2266 4.1445-4.6523z"/>
 <path d="m31.812 38.777c-1.2852-0.48438-3.0859 1.1406-4.0234 3.625-0.9375 2.4883-0.65625 4.8945 0.62891 5.3789 1.2852 0.48438 3.0859-1.1406 4.0234-3.625s0.65625-4.8945-0.62891-5.3789z"/>
 <path d="m19.484 39.273c-0.9375 2.4883-0.65625 4.8945 0.62891 5.3789 1.2852 0.48438 3.0859-1.1406 4.0234-3.625 0.9375-2.4883 0.65625-4.8945-0.62891-5.3789-1.2852-0.48438-3.0859 1.1406-4.0234 3.625z"/>
<text x="0.0" y="117.5" font-size="5.0" font-weight="bold" font-family="Arbeit Regular, Helvetica, Arial-Unicode, Arial, Sans-serif" fill="#000000">Created by Vectors Market</text><text x="0.0" y="122.5" font-size="5.0" font-weight="bold" font-family="Arbeit Regular, Helvetica, Arial-Unicode, Arial, Sans-serif" fill="#000000">from Noun Project</text></svg>